G04 #@! TF.FileFunction,Soldermask,Bot*
%FSLAX46Y46*%
G04 Gerber Fmt 4.6, Leading zero omitted, Abs format (unit mm)*
G04 Created by KiCad (PCBNEW 4.0.6) date 05/22/18 12:37:36*
%MOMM*%
%LPD*%
G01*
G04 APERTURE LIST*
%ADD10C,0.150000*%
%ADD11C,1.778000*%
%ADD12C,1.508760*%
%ADD13R,5.407660X5.407660*%
G04 APERTURE END LIST*
D10*
D11*
X30010100Y-32054800D03*
X57315100Y-32054800D03*
D12*
X32867600Y-32689800D03*
X31597600Y-32689800D03*
X31597600Y-31419800D03*
X32867600Y-31419800D03*
X36677600Y-31419800D03*
X37947600Y-31419800D03*
X35407600Y-31419800D03*
X34137600Y-31419800D03*
X34137600Y-32689800D03*
X35407600Y-32689800D03*
X37947600Y-32689800D03*
X36677600Y-32689800D03*
X50647600Y-31419800D03*
X51917600Y-31419800D03*
X54457600Y-31419800D03*
X53187600Y-31419800D03*
X53187600Y-32689800D03*
X54457600Y-32689800D03*
X51917600Y-32689800D03*
X50647600Y-32689800D03*
X55727600Y-32689800D03*
X55727600Y-31419800D03*
X49377600Y-31419800D03*
X49377600Y-32689800D03*
X41757600Y-32689800D03*
X43027600Y-32689800D03*
X40487600Y-32689800D03*
X39217600Y-32689800D03*
X44297600Y-32689800D03*
X45567600Y-32689800D03*
X48107600Y-32689800D03*
X46837600Y-32689800D03*
X46837600Y-31419800D03*
X48107600Y-31419800D03*
X45567600Y-31419800D03*
X44297600Y-31419800D03*
X39217600Y-31419800D03*
X40487600Y-31419800D03*
X43027600Y-31419800D03*
X41757600Y-31419800D03*
D13*
X65125600Y-31419800D03*
M02*
