G04 #@! TF.FileFunction,Soldermask,Top*
%FSLAX46Y46*%
G04 Gerber Fmt 4.6, Leading zero omitted, Abs format (unit mm)*
G04 Created by KiCad (PCBNEW 4.0.6) date 05/22/18 12:37:36*
%MOMM*%
%LPD*%
G01*
G04 APERTURE LIST*
%ADD10C,0.150000*%
%ADD11R,1.708000X1.708000*%
%ADD12R,3.008000X2.808000*%
%ADD13C,1.778000*%
%ADD14C,1.508760*%
%ADD15R,5.407660X5.407660*%
%ADD16R,1.408000X2.208000*%
G04 APERTURE END LIST*
D10*
D11*
X20878800Y-37932000D03*
X20878800Y-40132000D03*
X20777200Y-24044000D03*
X20777200Y-21844000D03*
X23114000Y-37932000D03*
X23114000Y-40132000D03*
X23215600Y-24053800D03*
X23215600Y-21853800D03*
X25400000Y-37932000D03*
X25400000Y-40132000D03*
X25654000Y-24044000D03*
X25654000Y-21844000D03*
X27940000Y-37932000D03*
X27940000Y-40132000D03*
X28067000Y-24044000D03*
X28067000Y-21844000D03*
X30353000Y-37932000D03*
X30353000Y-40132000D03*
X30480000Y-24061600D03*
X30480000Y-21861600D03*
X32766000Y-37932000D03*
X32766000Y-40132000D03*
X32867600Y-24061600D03*
X32867600Y-21861600D03*
X35153600Y-37932000D03*
X35153600Y-40132000D03*
X35280600Y-24069400D03*
X35280600Y-21869400D03*
X37566600Y-37932000D03*
X37566600Y-40132000D03*
X37693600Y-24069400D03*
X37693600Y-21869400D03*
X39979600Y-37939800D03*
X39979600Y-40139800D03*
X40106600Y-24069400D03*
X40106600Y-21869400D03*
X42392600Y-37947600D03*
X42392600Y-40147600D03*
X42519600Y-24069400D03*
X42519600Y-21869400D03*
X44805600Y-37932000D03*
X44805600Y-40132000D03*
X44932600Y-24069400D03*
X44932600Y-21869400D03*
X47218600Y-37932000D03*
X47218600Y-40132000D03*
X47345600Y-24069400D03*
X47345600Y-21869400D03*
X49631600Y-37932000D03*
X49631600Y-40132000D03*
X49758600Y-24069400D03*
X49758600Y-21869400D03*
X52070000Y-37932000D03*
X52070000Y-40132000D03*
X52171600Y-24069400D03*
X52171600Y-21869400D03*
X54457600Y-37932000D03*
X54457600Y-40132000D03*
X54584600Y-24069400D03*
X54584600Y-21869400D03*
X56870600Y-37932000D03*
X56870600Y-40132000D03*
X56997600Y-24069400D03*
X56997600Y-21869400D03*
X59283600Y-37932000D03*
X59283600Y-40132000D03*
X59410600Y-24069400D03*
X59410600Y-21869400D03*
X61722000Y-37932000D03*
X61722000Y-40132000D03*
X61823600Y-24069400D03*
X61823600Y-21869400D03*
X64109600Y-37932000D03*
X64109600Y-40132000D03*
X64236600Y-24069400D03*
X64236600Y-21869400D03*
X66497200Y-37922200D03*
X66497200Y-40122200D03*
X66649600Y-24069400D03*
X66649600Y-21869400D03*
D12*
X25314800Y-32740600D03*
X21014800Y-32740600D03*
D13*
X30010100Y-32054800D03*
X57315100Y-32054800D03*
D14*
X32867600Y-32689800D03*
X31597600Y-32689800D03*
X31597600Y-31419800D03*
X32867600Y-31419800D03*
X36677600Y-31419800D03*
X37947600Y-31419800D03*
X35407600Y-31419800D03*
X34137600Y-31419800D03*
X34137600Y-32689800D03*
X35407600Y-32689800D03*
X37947600Y-32689800D03*
X36677600Y-32689800D03*
X50647600Y-31419800D03*
X51917600Y-31419800D03*
X54457600Y-31419800D03*
X53187600Y-31419800D03*
X53187600Y-32689800D03*
X54457600Y-32689800D03*
X51917600Y-32689800D03*
X50647600Y-32689800D03*
X55727600Y-32689800D03*
X55727600Y-31419800D03*
X49377600Y-31419800D03*
X49377600Y-32689800D03*
X41757600Y-32689800D03*
X43027600Y-32689800D03*
X40487600Y-32689800D03*
X39217600Y-32689800D03*
X44297600Y-32689800D03*
X45567600Y-32689800D03*
X48107600Y-32689800D03*
X46837600Y-32689800D03*
X46837600Y-31419800D03*
X48107600Y-31419800D03*
X45567600Y-31419800D03*
X44297600Y-31419800D03*
X39217600Y-31419800D03*
X40487600Y-31419800D03*
X43027600Y-31419800D03*
X41757600Y-31419800D03*
D15*
X65125600Y-31419800D03*
D16*
X20264800Y-29108400D03*
X23164800Y-29108400D03*
M02*
