M48
METRIC,LZ
T1C0.381
T2C0.635
T3C1.016
T4C1.270
%
G90
G05
T1
X025315Y-032741
T2
X031598Y-03142
X031598Y-03269
X032868Y-03142
X032868Y-03269
X034138Y-03142
X034138Y-03269
X035408Y-03142
X035408Y-03269
X036678Y-03142
X036678Y-03269
X037948Y-03142
X037948Y-03269
X039218Y-03142
X039218Y-03269
X040488Y-03142
X040488Y-03269
X041758Y-03142
X041758Y-03269
X043028Y-03142
X043028Y-03269
X044298Y-03142
X044298Y-03269
X045568Y-03142
X045568Y-03269
X046838Y-03142
X046838Y-03269
X048108Y-03142
X048108Y-03269
X049378Y-03142
X049378Y-03269
X050648Y-03142
X050648Y-03269
X051918Y-03142
X051918Y-03269
X053188Y-03142
X053188Y-03269
X054458Y-03142
X054458Y-03269
X055728Y-03142
X055728Y-03269
T3
X065126Y-03142
T4
X03001Y-032055
X057315Y-032055
T0
M30
